<mxfile host="65bd71144e">
    <diagram id="8LJRF1ykfLr_JonxUCOZ" name="PÃ¡gina-1">
        <mxGraphModel dx="603" dy="461" grid="1" gridSize="10" guides="1" tooltips="1" connect="1" arrows="1" fold="1" page="1" pageScale="1" pageWidth="827" pageHeight="1169" math="0" shadow="0">
            <root>
                <mxCell id="0"/>
                <mxCell id="1" parent="0"/>
                <mxCell id="3" style="edgeStyle=none;html=1;fontColor=#6bc90d;" edge="1" parent="1">
                    <mxGeometry relative="1" as="geometry">
                        <mxPoint x="240" y="170" as="targetPoint"/>
                        <mxPoint x="240" y="120" as="sourcePoint"/>
                    </mxGeometry>
                </mxCell>
                <mxCell id="6" style="edgeStyle=none;html=1;fontColor=#6bc90d;" edge="1" parent="1" source="4">
                    <mxGeometry relative="1" as="geometry">
                        <mxPoint x="240" y="240" as="targetPoint"/>
                    </mxGeometry>
                </mxCell>
                <mxCell id="4" value="n" style="shape=parallelogram;perimeter=parallelogramPerimeter;whiteSpace=wrap;html=1;fixedSize=1;rounded=1;labelBackgroundColor=none;strokeColor=#005700;fontColor=#ffffff;fillColor=#008a00;" vertex="1" parent="1">
                    <mxGeometry x="180" y="170" width="120" height="40" as="geometry"/>
                </mxCell>
                <mxCell id="11" style="edgeStyle=none;html=1;exitX=0.5;exitY=1;exitDx=0;exitDy=0;fontColor=none;" edge="1" parent="1" source="9">
                    <mxGeometry relative="1" as="geometry">
                        <mxPoint x="240" y="320" as="targetPoint"/>
                    </mxGeometry>
                </mxCell>
                <mxCell id="9" value="&lt;span style=&quot;&quot;&gt;s=( n(n+1))/2&lt;/span&gt;" style="rounded=0;whiteSpace=wrap;html=1;labelBackgroundColor=none;strokeColor=#005700;fontColor=#ffffff;fillColor=#008a00;" vertex="1" parent="1">
                    <mxGeometry x="180" y="240" width="120" height="60" as="geometry"/>
                </mxCell>
                <mxCell id="10" value="inicio" style="rounded=0;whiteSpace=wrap;html=1;labelBackgroundColor=none;sketch=0;strokeColor=#005700;fontColor=#ffffff;fillColor=#008a00;" vertex="1" parent="1">
                    <mxGeometry x="180" y="60" width="120" height="60" as="geometry"/>
                </mxCell>
                <mxCell id="13" style="edgeStyle=none;html=1;fontColor=none;" edge="1" parent="1" source="12">
                    <mxGeometry relative="1" as="geometry">
                        <mxPoint x="240" y="430" as="targetPoint"/>
                    </mxGeometry>
                </mxCell>
                <mxCell id="12" value="s" style="shape=document;whiteSpace=wrap;html=1;boundedLbl=1;rounded=1;labelBackgroundColor=none;sketch=0;strokeColor=#005700;fontColor=#ffffff;fillColor=#008a00;" vertex="1" parent="1">
                    <mxGeometry x="180" y="320" width="120" height="70" as="geometry"/>
                </mxCell>
                <mxCell id="14" value="fin" style="rounded=0;whiteSpace=wrap;html=1;labelBackgroundColor=none;sketch=0;strokeColor=#005700;fontColor=#ffffff;fillColor=#008a00;" vertex="1" parent="1">
                    <mxGeometry x="180" y="430" width="120" height="60" as="geometry"/>
                </mxCell>
            </root>
        </mxGraphModel>
    </diagram>
</mxfile>